<?xml version="1.0" encoding="iso-8859-1"?>
<!-- Generator: Adobe Illustrator 19.0.0, SVG Export Plug-In . SVG Version: 6.00 Build 0)  -->
<svg version="1.1" id="Layer_1" xmlns="http://www.w3.org/2000/svg" xmlns:xlink="http://www.w3.org/1999/xlink" x="0px" y="0px"
	 viewBox="0 0 512 512" style="enable-background:new 0 0 512 512;" xml:space="preserve">
<g>
	<g>
		<g>
			<path d="M236.64,81.497c4.905,3.456,10.453,5.628,16.484,6.272v4.985c0,1.93,1.607,3.458,3.538,3.458
				c1.93,0,3.458-1.527,3.458-3.458V87.93c10.211-0.965,17.126-6.835,17.126-15.679c0-8.604-5.226-13.509-17.448-16.564v-15.44
				c2.734,0.643,5.468,1.849,8.282,3.538c0.804,0.482,1.607,0.724,2.411,0.724c2.492,0,4.503-1.93,4.503-4.423
				c0-1.93-1.125-3.136-2.412-3.858c-3.698-2.332-7.719-3.861-12.463-4.423v-1.769c0-1.93-1.528-3.458-3.458-3.458
				c-1.929,0-3.538,1.528-3.538,3.458v1.689c-10.051,0.804-16.886,6.754-16.886,15.359c0,9.085,5.467,13.509,17.207,16.563v15.841
				c-4.422-0.804-8.121-2.654-11.9-5.388c-0.724-0.562-1.689-0.885-2.653-0.885c-2.492,0-4.423,1.93-4.423,4.423
				C234.469,79.325,235.273,80.612,236.64,81.497z M259.798,65.174c6.193,1.93,7.96,4.101,7.96,7.639
				c0,3.859-2.814,6.432-7.96,6.995V65.174z M245.726,46.52c0-3.538,2.574-6.273,7.719-6.755v14.232
				C247.254,51.987,245.726,49.897,245.726,46.52z"/>
			<path d="M488.637,466.557h-11.078v-10.842c0-7.327-5.961-13.287-13.288-13.287h-11.112c0.42-1.662,0.667-3.391,0.667-5.182
				c0-8.86-5.465-16.46-13.198-19.63V220.692c7.733-3.169,13.198-10.769,13.198-19.63c0-1.79-0.247-3.52-0.667-5.182h11.386
				c10.313,0,18.704-8.391,18.704-18.704v-12.708c0-10.313-8.391-18.704-18.704-18.704h-3.111v-8.492
				c0-10.313-8.391-18.704-18.704-18.704h-26.702L314.961,43.027C306.954,18.097,283.556,0,256,0
				c-27.555,0-50.954,18.097-58.96,43.027L95.974,118.569H69.27c-10.313,0-18.704,8.391-18.704,18.704v8.492h-3.11
				c-10.313,0-18.704,8.391-18.704,18.704v12.708c0,10.313,8.391,18.704,18.704,18.704h11.378c-0.42,1.662-0.667,3.391-0.667,5.182
				c0,8.86,5.465,16.46,13.198,19.63v196.924c-7.733,3.17-13.198,10.769-13.198,19.63c0,1.79,0.247,3.521,0.667,5.182H47.729
				c-7.327,0-13.288,5.961-13.288,13.287v10.843H23.363c-7.328,0-13.288,5.961-13.288,13.287v18.867
				c0,7.327,5.962,13.288,13.288,13.288h465.274c7.327,0,13.288-5.962,13.288-13.288v-18.867
				C501.926,472.519,495.965,466.557,488.637,466.557z M317.832,65.188l71.417,53.381H280.952
				C301.755,109.37,316.585,89.052,317.832,65.188z M256,16.032c25.302,0,45.887,20.585,45.887,45.887S281.302,107.806,256,107.806
				s-45.887-20.585-45.887-45.887S230.698,16.032,256,16.032z M194.169,65.188c1.247,23.865,16.077,44.182,36.88,53.381H122.752
				L194.169,65.188z M66.598,137.273c0-1.448,1.224-2.672,2.672-2.672h373.459c1.448,0,2.672,1.224,2.672,2.672v8.492H66.598
				V137.273z M47.456,179.849c-1.448,0-2.672-1.224-2.672-2.672v-12.708c0-1.448,1.224-2.672,2.672-2.672h417.088
				c1.448,0,2.672,1.224,2.672,2.672v12.708c0,1.448-1.224,2.672-2.672,2.672H47.456z M381.446,237.595v178.436h-27.118V222.276
				h70.267v193.755h-27.118V237.595H381.446z M346.313,206.244c-2.857,0-5.182-2.325-5.182-5.182s2.325-5.182,5.182-5.182h86.299
				c2.857,0,5.182,2.325,5.182,5.182c0,2.858-2.324,5.182-5.182,5.182H346.313z M346.313,432.065h86.299
				c2.857,0,5.182,2.325,5.182,5.182c0,2.857-2.325,5.182-5.182,5.182h-86.299c-2.857,0-5.182-2.325-5.182-5.182
				C341.131,434.389,343.456,432.065,346.313,432.065z M325.766,442.428h-6.073c0.42-1.662,0.667-3.391,0.667-5.182
				c0-8.86-5.465-16.46-13.198-19.63V220.692c7.733-3.169,13.198-10.769,13.198-19.63c0-1.79-0.247-3.52-0.667-5.182h6.073
				c-0.42,1.662-0.667,3.391-0.667,5.182c0,8.86,5.465,16.46,13.198,19.63v196.924c-7.733,3.17-13.198,10.769-13.198,19.63
				C325.099,439.036,325.346,440.766,325.766,442.428z M247.981,237.595v178.436h-27.118V222.276h70.267v193.755h-27.118V237.595
				H247.981z M299.146,432.065c2.857,0,5.182,2.325,5.182,5.182c0,2.857-2.325,5.182-5.182,5.182h-86.299
				c-2.857,0-5.182-2.325-5.182-5.182c0-2.857,2.325-5.182,5.182-5.182H299.146z M299.146,206.244h-86.299
				c-2.857,0-5.182-2.325-5.182-5.182s2.325-5.182,5.182-5.182h86.299c2.857,0,5.182,2.325,5.182,5.182
				C304.328,203.921,302.003,206.244,299.146,206.244z M192.3,442.428h-6.073c0.42-1.662,0.667-3.391,0.667-5.182
				c0-8.86-5.465-16.46-13.198-19.63V220.692c7.733-3.169,13.198-10.769,13.198-19.63c0-1.79-0.247-3.52-0.667-5.182h6.073
				c-0.42,1.662-0.667,3.391-0.667,5.182c0,8.86,5.465,16.46,13.198,19.63v196.924c-7.733,3.17-13.198,10.769-13.198,19.63
				C191.633,439.036,191.881,440.766,192.3,442.428z M114.514,237.595v178.436H87.397V222.276h70.267v193.755h-27.118V237.595
				H114.514z M165.68,432.065c2.857,0,5.182,2.325,5.182,5.182c0,2.857-2.325,5.182-5.182,5.182H79.381
				c-2.857,0-5.182-2.325-5.182-5.182c0-2.857,2.325-5.182,5.182-5.182H165.68z M165.68,206.244H79.381
				c-2.857,0-5.182-2.325-5.182-5.182s2.325-5.182,5.182-5.182h86.299c2.857,0,5.182,2.325,5.182,5.182
				C170.862,203.921,168.538,206.244,165.68,206.244z M50.473,458.46h411.055v8.098H50.473V458.46z M26.107,495.968v-13.379h459.786
				v13.379H26.107z"/>
		</g>
	</g>
</g>
<g>
</g>
<g>
</g>
<g>
</g>
<g>
</g>
<g>
</g>
<g>
</g>
<g>
</g>
<g>
</g>
<g>
</g>
<g>
</g>
<g>
</g>
<g>
</g>
<g>
</g>
<g>
</g>
<g>
</g>
</svg>
