<?xml version="1.0" encoding="iso-8859-1"?>
<!-- Generator: Adobe Illustrator 19.0.0, SVG Export Plug-In . SVG Version: 6.00 Build 0)  -->
<svg version="1.1" id="Layer_1" xmlns="http://www.w3.org/2000/svg" xmlns:xlink="http://www.w3.org/1999/xlink" x="0px" y="0px"
	 viewBox="0 0 475 475" style="enable-background:new 0 0 475 475;" xml:space="preserve">
<g transform="translate(0 -540.36)">
	<g>
		<g>
			<path d="M467.5,981.597H7.5c-4.1,0-7.5,3.4-7.5,7.5s3.4,7.5,7.5,7.5h460c4.1,0,7.5-3.4,7.5-7.5S471.6,981.597,467.5,981.597z"/>
			<path d="M59.5,934.297h356.8c4.1,0,7.5-3.4,7.5-7.5s-3.4-7.5-7.5-7.5H59.5c-4.1,0-7.5,3.4-7.5,7.5S55.4,934.297,59.5,934.297z"/>
			<path d="M59.5,875.898c4.1,0,7.5-3.3,7.5-7.5v-181.3c0-4.1-3.4-7.5-7.5-7.5s-7.5,3.4-7.5,7.5v181.3
				C52,872.497,55.4,875.898,59.5,875.898z"/>
			<path d="M126.7,868.398v-181.3c0-4.1-3.4-7.5-7.5-7.5c-4.1,0-7.5,3.4-7.5,7.5v181.3c0,4.1,3.4,7.5,7.5,7.5
				C123.3,875.898,126.7,872.598,126.7,868.398z"/>
			<path d="M56.3,636.297h362.3c3.7,0,6.8-2.7,7.4-6.3c0.6-3.6-1.5-7.1-5-8.3l-180.7-62.2c-1.6-0.5-3.3-0.5-4.9,0l-181.5,62.2
				c-3.5,1.2-5.6,4.7-5,8.3S52.6,636.297,56.3,636.297z M238,574.497l135.9,46.8H101.4L238,574.497z"/>
			<path d="M160.5,797.598c0,4.1,3.4,7.5,7.5,7.5h16.6c7.2,23.5,23.7,42.3,45.8,50.8c8.5,3.5,17.3,5.2,25.9,5.2
				c21.6,0,42.5-10.4,56.5-29.5c2.6-3.3,1.9-8-1.4-10.4c-3.3-2.5-8-1.8-10.5,1.6c-15.6,21.1-41.7,28.9-64.8,19.3
				c-0.1,0-0.1,0-0.2-0.1c-16.1-6.2-28.7-19.8-35.3-36.9h68.3c4.1,0,7.5-3.4,7.5-7.5s-3.4-7.5-7.5-7.5h-72.3
				c-0.5-3.2-0.8-6.5-0.9-9.8c-0.1-2.4,0-4.8,0.2-7.1h84.6c4.1,0,7.5-3.4,7.5-7.5s-3.4-7.5-7.5-7.5h-82
				c5.3-18.9,17.9-34.8,34.7-42.5c0.1,0,0.1-0.1,0.2-0.1c22.4-10.9,48.2-4.9,65.5,15.3c2.7,3.1,7.4,3.5,10.6,0.8
				c3.1-2.7,3.5-7.4,0.8-10.6c-10.6-12.3-24-20.7-38.9-24.1c-15-3.5-30.4-1.7-44.5,5.1c-22,10.1-38.1,31.3-43.9,56.1h-14.2
				c-4.1,0-7.5,3.4-7.5,7.5s3.4,7.5,7.5,7.5h12c-0.1,2.5-0.2,5-0.1,7.5c0.1,3.2,0.3,6.3,0.7,9.4H168
				C163.9,790.098,160.5,793.498,160.5,797.598z"/>
			<path d="M363.3,868.398v-181.3c0-4.1-3.4-7.5-7.5-7.5c-4.1,0-7.5,3.4-7.5,7.5v181.3c0,4.1,3.4,7.5,7.5,7.5
				C359.9,875.898,363.3,872.598,363.3,868.398z"/>
			<path d="M423.8,687.098c0-4.1-3.4-7.5-7.5-7.5c-4.1,0-7.5,3.4-7.5,7.5v181.3c0,4.1,3.4,7.5,7.5,7.5c4.1,0,7.5-3.3,7.5-7.5
				V687.098z"/>
		</g>
	</g>
</g>
<g>
</g>
<g>
</g>
<g>
</g>
<g>
</g>
<g>
</g>
<g>
</g>
<g>
</g>
<g>
</g>
<g>
</g>
<g>
</g>
<g>
</g>
<g>
</g>
<g>
</g>
<g>
</g>
<g>
</g>
</svg>
